<?xml version="1.0" encoding="UTF-8" standalone="no"?>
<!DOCTYPE svg PUBLIC "-//W3C//DTD SVG 1.1//EN" "http://www.w3.org/Graphics/SVG/1.1/DTD/svg11.dtd">
<svg xmlns="http://www.w3.org/2000/svg" version="1.1" viewBox="0 0 200 200" width="200.0pt" height="200.0pt">
<path d="M 0.00 0.00 L 104.12 0.00 C 104.33 2.37 104.42 4.74 104.50 7.12 C 104.96 19.58 104.21 31.53 99.04 43.05 C 94.25 53.20 87.18 62.35 78.42 69.38 C 73.70 73.20 68.22 75.66 63.56 79.59 C 51.16 89.71 43.33 105.00 42.55 121.00 C 41.74 134.50 45.92 148.17 54.10 158.94 C 60.32 167.20 68.82 173.72 78.41 177.59 C 92.04 183.18 107.87 183.22 121.53 177.71 C 132.98 173.15 142.87 164.84 149.29 154.31 C 155.81 143.80 158.66 131.28 157.52 118.97 C 156.02 100.34 144.79 83.11 128.50 74.01 C 127.00 73.19 125.47 72.41 123.93 71.64 C 136.65 66.27 148.18 58.73 156.80 47.81 C 162.41 40.68 166.31 32.48 168.80 23.78 C 171.06 16.02 171.98 8.05 172.37 0.00 L 200.00 0.00 L 200.00 200.00 L 101.60 200.00 C 103.63 199.89 105.65 199.73 107.67 199.60 L 107.40 197.54 C 105.66 197.62 103.91 197.70 102.16 197.77 C 102.02 194.76 101.86 191.75 101.75 188.74 L 99.34 188.76 C 99.48 192.51 99.63 196.25 99.80 200.00 L 99.26 200.00 C 98.08 196.19 97.29 192.27 96.10 188.47 L 93.62 188.53 C 91.53 192.00 90.05 195.89 88.55 199.65 C 90.48 199.25 91.31 198.71 92.58 197.27 C 93.64 197.33 94.70 197.39 95.76 197.45 C 96.14 198.31 96.52 199.16 96.91 200.00 L 0.00 200.00 L 0.00 0.00 Z" fill="#ffffff" />
<path d="M 104.12 0.00 L 172.37 0.00 C 171.98 8.05 171.06 16.02 168.80 23.78 C 161.26 23.74 153.72 23.75 146.17 23.77 C 142.74 39.85 133.51 54.45 120.33 64.30 C 115.65 67.77 110.66 70.60 105.03 72.19 C 97.90 74.21 90.46 74.77 83.31 77.33 C 69.74 82.13 58.59 93.06 53.55 106.55 C 47.76 121.74 49.91 139.39 59.29 152.68 C 65.10 160.99 73.52 167.51 83.08 170.95 C 94.40 175.08 107.27 174.89 118.48 170.47 C 131.63 165.27 142.29 154.31 147.00 140.97 C 152.45 125.87 150.11 108.37 140.70 95.34 C 135.05 87.33 127.11 81.35 118.06 77.66 C 115.62 78.24 113.18 78.77 110.72 79.28 C 121.95 82.33 131.89 88.86 138.34 98.63 C 147.60 112.27 148.69 130.44 141.08 145.07 C 132.76 161.60 114.45 171.79 96.00 169.98 C 77.97 168.50 61.94 155.72 56.42 138.50 C 50.61 121.30 56.03 101.61 69.70 89.72 C 77.79 82.54 88.21 78.52 99.01 78.19 C 107.83 77.91 115.92 75.09 123.93 71.64 C 125.47 72.41 127.00 73.19 128.50 74.01 C 127.00 74.62 125.50 75.22 123.99 75.83 C 134.98 81.56 144.03 90.51 149.13 101.88 C 154.56 113.61 155.39 127.41 151.69 139.78 C 147.77 152.82 138.71 164.12 126.90 170.89 C 111.08 180.14 90.52 180.35 74.47 171.53 C 63.19 165.43 54.27 155.23 49.73 143.23 C 44.52 129.55 45.19 113.81 51.67 100.67 C 57.35 88.79 67.37 79.71 79.31 74.32 C 89.92 69.46 99.68 64.46 107.35 55.37 C 118.69 41.90 122.91 24.32 124.37 7.15 C 117.75 7.14 111.12 7.18 104.50 7.12 C 104.42 4.74 104.33 2.37 104.12 0.00 Z" fill="#ffe800" />
<path d="M 136.92 5.83 L 137.06 6.22 C 137.67 7.87 138.26 9.52 138.85 11.17 C 140.80 11.15 142.74 11.14 144.68 11.13 C 143.11 12.25 141.55 13.37 139.98 14.48 C 140.52 16.37 141.08 18.24 141.63 20.12 C 140.06 19.00 138.49 17.87 136.93 16.74 C 135.39 17.87 133.84 19.00 132.30 20.14 C 132.86 18.27 133.42 16.40 133.96 14.53 C 132.41 13.42 130.86 12.31 129.32 11.19 C 131.25 11.17 133.18 11.15 135.11 11.14 C 135.71 9.37 136.31 7.60 136.92 5.83 Z" fill="#000000" />
<path d="M 104.50 7.12 C 111.12 7.18 117.75 7.14 124.37 7.15 C 122.91 24.32 118.69 41.90 107.35 55.37 C 99.68 64.46 89.92 69.46 79.31 74.32 C 67.37 79.71 57.35 88.79 51.67 100.67 C 45.19 113.81 44.52 129.55 49.73 143.23 C 54.27 155.23 63.19 165.43 74.47 171.53 C 90.52 180.35 111.08 180.14 126.90 170.89 C 138.71 164.12 147.77 152.82 151.69 139.78 C 155.39 127.41 154.56 113.61 149.13 101.88 C 144.03 90.51 134.98 81.56 123.99 75.83 C 125.50 75.22 127.00 74.62 128.50 74.01 C 144.79 83.11 156.02 100.34 157.52 118.97 C 158.66 131.28 155.81 143.80 149.29 154.31 C 142.87 164.84 132.98 173.15 121.53 177.71 C 107.87 183.22 92.04 183.18 78.41 177.59 C 68.82 173.72 60.32 167.20 54.10 158.94 C 45.92 148.17 41.74 134.50 42.55 121.00 C 43.33 105.00 51.16 89.71 63.56 79.59 C 68.22 75.66 73.70 73.20 78.42 69.38 C 87.18 62.35 94.25 53.20 99.04 43.05 C 104.21 31.53 104.96 19.58 104.50 7.12 Z" fill="#da202d" />
<path d="M 146.17 23.77 C 153.72 23.75 161.26 23.74 168.80 23.78 C 166.31 32.48 162.41 40.68 156.80 47.81 C 148.18 58.73 136.65 66.27 123.93 71.64 C 115.92 75.09 107.83 77.91 99.01 78.19 C 88.21 78.52 77.79 82.54 69.70 89.72 C 56.03 101.61 50.61 121.30 56.42 138.50 C 61.94 155.72 77.97 168.50 96.00 169.98 C 114.45 171.79 132.76 161.60 141.08 145.07 C 148.69 130.44 147.60 112.27 138.34 98.63 C 131.89 88.86 121.95 82.33 110.72 79.28 C 113.18 78.77 115.62 78.24 118.06 77.66 C 127.11 81.35 135.05 87.33 140.70 95.34 C 150.11 108.37 152.45 125.87 147.00 140.97 C 142.29 154.31 131.63 165.27 118.48 170.47 C 107.27 174.89 94.40 175.08 83.08 170.95 C 73.52 167.51 65.10 160.99 59.29 152.68 C 49.91 139.39 47.76 121.74 53.55 106.55 C 58.59 93.06 69.74 82.13 83.31 77.33 C 90.46 74.77 97.90 74.21 105.03 72.19 C 110.66 70.60 115.65 67.77 120.33 64.30 C 133.51 54.45 142.74 39.85 146.17 23.77 Z" fill="#00a950" />
<path d="M 117.98 84.79 C 115.31 86.13 112.71 87.56 110.14 89.09 C 102.98 87.40 97.23 87.41 90.08 89.09 C 87.52 87.54 84.93 86.11 82.25 84.79 C 93.49 79.70 106.73 79.71 117.98 84.79 Z" fill="#ffffff" />
<path d="M 117.98 84.79 L 118.48 85.02 C 123.60 87.50 128.22 90.80 132.06 95.01 C 131.63 97.99 131.06 100.91 130.38 103.84 C 134.22 110.00 136.01 115.53 136.55 122.79 C 138.84 124.78 141.01 126.84 143.11 129.03 C 142.42 134.85 140.63 140.46 137.71 145.54 C 134.76 146.06 131.81 146.40 128.84 146.65 C 124.20 152.18 119.26 155.72 112.59 158.49 C 111.47 161.24 110.21 163.90 108.84 166.54 C 103.06 167.67 97.22 167.70 91.43 166.57 C 90.02 163.93 88.78 161.26 87.65 158.48 C 80.91 155.70 76.12 152.18 71.39 146.65 C 68.39 146.41 65.45 146.05 62.49 145.55 C 59.63 140.45 57.83 134.80 57.12 129.01 C 59.20 126.83 61.35 124.80 63.67 122.87 C 64.25 115.65 66.02 109.95 69.87 103.82 C 69.19 100.88 68.62 97.93 68.21 94.94 C 72.20 90.64 76.94 87.27 82.25 84.79 C 84.93 86.11 87.52 87.54 90.08 89.09 C 97.23 87.41 102.98 87.40 110.14 89.09 C 112.71 87.56 115.31 86.13 117.98 84.79 Z" fill="#000000" />
<path d="M 109.87 90.81 C 111.75 94.43 113.71 98.02 115.58 101.66 C 113.29 104.67 111.12 107.78 108.90 110.84 C 108.00 111.89 107.66 112.98 106.06 112.89 C 101.69 113.06 97.32 112.88 92.95 112.94 C 90.35 109.23 87.35 105.73 85.05 101.84 C 86.03 98.07 88.52 94.12 90.70 90.87 C 96.79 88.84 103.70 89.25 109.87 90.81 Z" fill="#ffffff" />
<path d="M 68.21 94.94 C 68.62 97.93 69.19 100.88 69.87 103.82 C 66.02 109.95 64.25 115.65 63.67 122.87 C 61.35 124.80 59.20 126.83 57.12 129.01 C 55.75 116.59 59.82 104.17 68.21 94.94 Z" fill="#ffffff" />
<path d="M 132.06 95.01 C 140.45 104.24 144.52 116.61 143.11 129.03 C 141.01 126.84 138.84 124.78 136.55 122.79 C 136.01 115.53 134.22 110.00 130.38 103.84 C 131.06 100.91 131.63 97.99 132.06 95.01 Z" fill="#ffffff" />
<path d="M 83.38 102.48 C 86.16 106.27 88.91 110.08 91.67 113.89 C 90.20 118.44 88.69 122.97 87.26 127.53 C 82.79 129.02 78.29 130.42 73.82 131.90 C 71.00 128.96 68.18 126.03 65.35 123.10 C 65.82 116.07 67.65 110.59 71.36 104.64 C 75.37 103.95 79.38 103.21 83.38 102.48 Z" fill="#ffffff" />
<path d="M 116.91 102.54 C 120.90 103.14 124.85 103.98 128.84 104.61 C 132.40 110.18 134.71 116.30 134.73 122.98 C 132.30 126.17 129.17 128.87 126.48 131.86 C 121.98 130.47 117.51 129.01 113.03 127.56 C 111.54 123.00 110.07 118.44 108.58 113.89 C 111.37 110.12 114.00 106.22 116.91 102.54 Z" fill="#ffffff" />
<path d="M 35.79 123.01 C 36.34 126.29 34.62 127.67 32.25 129.55 C 31.63 127.07 33.93 125.37 33.73 123.15 C 32.90 120.66 28.66 120.49 26.97 121.97 C 25.22 123.94 26.68 125.38 27.82 127.14 C 28.34 125.64 29.14 124.40 30.22 123.42 C 30.36 125.28 30.44 127.15 30.49 129.03 C 28.41 129.00 26.32 128.98 24.24 128.94 C 24.41 128.16 24.58 127.38 24.75 126.60 C 24.42 124.78 23.60 123.25 24.57 121.48 C 26.70 116.98 35.18 117.73 35.79 123.01 Z" fill="#000000" />
<path d="M 164.17 118.88 C 168.25 118.70 172.33 118.68 176.41 118.76 C 175.73 122.41 170.89 123.64 168.10 125.61 C 170.91 125.57 173.72 125.54 176.53 125.65 L 175.30 127.79 C 171.78 128.01 168.24 127.84 164.72 127.96 C 164.74 127.06 164.75 126.16 164.77 125.26 C 167.21 123.90 169.62 122.50 172.06 121.14 C 169.76 121.12 167.41 121.22 165.13 120.92 L 164.17 118.88 Z" fill="#000000" />
<path d="M 87.72 129.12 C 91.68 131.79 95.50 134.68 99.33 137.52 C 99.28 142.18 99.29 146.85 99.32 151.51 C 95.67 153.24 92.08 155.45 88.23 156.70 C 82.01 154.75 76.75 150.37 72.61 145.43 C 73.23 141.45 73.78 137.47 74.25 133.48 C 78.71 131.96 83.18 130.38 87.72 129.12 Z" fill="#ffffff" />
<path d="M 166.37 129.38 C 168.59 128.34 171.78 128.75 173.73 130.23 C 176.55 132.68 175.73 138.15 172.06 139.35 C 169.98 139.81 167.38 139.66 165.61 138.37 C 162.71 136.32 163.20 130.93 166.37 129.38 Z" fill="#000000" />
<path d="M 36.15 129.44 C 35.68 132.69 34.50 131.78 31.94 132.45 C 32.08 133.76 32.22 135.08 32.35 136.40 C 33.82 136.25 35.28 136.12 36.75 136.02 C 36.78 136.77 36.81 137.52 36.84 138.27 C 33.19 138.84 29.54 139.37 25.88 139.92 L 25.56 137.53 C 27.17 137.27 28.79 137.00 30.41 136.74 C 30.21 135.39 30.02 134.05 29.82 132.70 C 28.16 132.92 26.50 133.13 24.83 133.35 L 24.65 130.93 C 28.48 130.38 32.29 129.79 36.15 129.44 Z" fill="#000000" />
<path d="M 112.62 129.10 C 117.07 130.41 121.44 131.98 125.88 133.34 C 126.51 137.35 127.02 141.39 127.60 145.41 C 123.12 150.89 118.48 154.26 111.91 156.91 C 108.22 155.08 104.48 153.33 100.83 151.43 C 100.95 146.90 100.67 142.34 100.97 137.81 C 104.37 134.47 108.73 131.87 112.62 129.10 Z" fill="#ffffff" />
<path d="M 167.46 131.49 C 169.92 130.65 173.84 131.76 173.35 135.03 C 172.66 137.73 168.59 137.56 166.81 136.22 C 165.12 134.84 165.54 132.39 167.46 131.49 Z" fill="#ffffff" />
<path d="M 163.17 139.15 C 166.76 139.76 170.27 140.89 173.81 141.75 L 173.18 144.10 C 170.30 143.33 167.40 142.61 164.50 141.90 C 164.15 142.97 163.80 144.04 163.44 145.11 C 166.27 146.12 169.11 147.11 171.95 148.09 C 171.69 148.87 171.44 149.66 171.18 150.44 C 168.35 149.42 165.52 148.42 162.69 147.41 C 162.18 148.61 161.66 149.80 161.13 150.99 L 159.88 149.50 C 160.72 146.00 162.01 142.55 163.17 139.15 Z" fill="#000000" />
<path d="M 26.21 141.22 C 29.95 141.28 33.80 141.31 37.50 141.84 C 38.05 142.56 38.57 143.31 39.06 144.07 C 35.66 146.61 32.28 149.22 28.71 151.51 C 28.75 149.58 29.06 148.56 30.18 147.02 C 29.89 145.97 29.59 144.93 29.29 143.88 C 28.43 143.70 27.57 143.52 26.72 143.32 C 26.53 142.62 26.36 141.92 26.21 141.22 Z" fill="#000000" />
<path d="M 35.42 143.79 C 34.30 144.63 33.17 145.46 32.05 146.31 C 31.87 145.45 31.70 144.60 31.54 143.74 C 32.83 143.74 34.13 143.76 35.42 143.79 Z" fill="#ffffff" />
<path d="M 62.49 145.55 C 65.45 146.05 68.39 146.41 71.39 146.65 C 76.12 152.18 80.91 155.70 87.65 158.48 C 88.78 161.26 90.02 163.93 91.43 166.57 C 79.16 163.99 68.76 156.39 62.49 145.55 Z" fill="#ffffff" />
<path d="M 137.71 145.54 C 131.64 156.28 120.94 164.08 108.84 166.54 C 110.21 163.90 111.47 161.24 112.59 158.49 C 119.26 155.72 124.20 152.18 128.84 146.65 C 131.81 146.40 134.76 146.06 137.71 145.54 Z" fill="#ffffff" />
<path d="M 40.23 147.44 C 41.45 150.91 37.51 154.09 35.89 156.94 C 38.33 155.79 40.77 154.63 43.26 153.59 L 43.17 155.87 C 40.03 157.78 36.54 159.14 33.21 160.68 C 31.78 157.28 36.03 153.97 37.57 151.14 C 35.15 152.28 32.73 153.41 30.30 154.50 L 29.98 152.44 C 33.12 150.35 36.80 148.98 40.23 147.44 Z" fill="#000000" />
<path d="M 158.70 151.29 C 162.78 151.78 166.85 152.15 170.89 152.86 C 169.53 154.48 168.86 154.72 166.82 155.12 C 166.36 156.06 165.91 157.01 165.45 157.95 C 166.35 159.31 166.61 160.82 166.23 162.48 C 163.21 159.75 160.44 156.72 157.57 153.79 C 157.95 152.96 158.33 152.13 158.70 151.29 Z" fill="#000000" />
<path d="M 160.74 153.81 C 162.11 153.99 163.48 154.17 164.85 154.35 C 164.48 155.16 164.10 155.98 163.72 156.79 C 162.73 155.80 161.73 154.81 160.74 153.81 Z" fill="#ffffff" />
<path d="M 155.88 157.45 C 159.09 159.09 162.06 161.20 165.14 163.07 C 164.71 163.75 164.27 164.44 163.83 165.13 C 160.55 163.09 157.30 161.03 154.03 158.98 L 155.88 157.45 Z" fill="#000000" />
<path d="M 45.60 158.78 C 46.11 159.49 46.61 160.21 47.11 160.93 C 44.62 164.17 42.24 167.50 39.63 170.64 C 38.78 168.65 39.06 167.95 39.70 166.00 C 39.11 165.15 38.51 164.31 37.91 163.46 C 36.14 163.47 34.73 162.91 33.69 161.77 C 37.60 160.58 41.58 159.55 45.60 158.78 Z" fill="#000000" />
<path d="M 43.98 161.32 C 43.08 162.43 42.19 163.55 41.29 164.66 C 40.81 163.93 40.33 163.21 39.84 162.48 C 41.22 162.09 42.60 161.70 43.98 161.32 Z" fill="#ffffff" />
<path d="M 157.87 161.70 C 156.26 162.81 153.43 163.66 152.37 165.41 C 152.46 168.73 156.88 171.71 159.44 168.47 C 159.27 167.36 159.15 166.25 159.08 165.13 C 160.62 162.30 161.31 165.84 161.61 167.16 C 161.71 170.06 158.94 172.83 155.99 172.32 C 152.39 171.66 148.67 167.77 150.64 163.97 C 152.29 160.90 154.74 160.75 157.87 161.70 Z" fill="#000000" />
<path d="M 51.38 166.77 C 53.33 168.39 55.13 170.26 56.69 172.26 C 55.99 175.85 52.84 170.73 51.63 169.91 C 51.04 170.36 50.45 170.80 49.86 171.25 C 51.09 172.64 52.32 174.04 53.51 175.47 C 51.11 176.88 49.91 174.19 48.20 172.99 C 47.09 174.15 45.92 175.25 44.78 176.38 C 44.41 175.67 44.05 174.95 43.72 174.23 C 46.03 171.58 48.69 169.03 51.38 166.77 Z" fill="#000000" />
<path d="M 145.19 170.11 C 149.81 166.84 156.55 173.75 153.30 178.30 C 151.26 181.35 147.49 181.88 144.86 179.19 C 141.81 176.53 141.67 172.42 145.19 170.11 Z" fill="#000000" />
<path d="M 146.15 172.04 C 148.89 169.89 154.02 175.60 150.86 177.93 C 147.86 180.76 142.39 174.26 146.15 172.04 Z" fill="#ffffff" />
<path d="M 56.09 174.04 C 60.32 172.83 64.62 177.39 62.48 181.49 C 60.74 185.26 56.44 187.08 53.12 183.90 C 49.67 180.73 52.30 175.41 56.09 174.04 Z" fill="#000000" />
<path d="M 56.47 176.50 C 57.50 175.90 58.49 175.93 59.44 176.59 C 63.05 178.94 57.69 185.69 54.59 182.41 C 52.83 180.47 54.60 177.61 56.47 176.50 Z" fill="#ffffff" />
<path d="M 142.92 177.35 C 141.11 178.20 138.83 178.15 137.21 179.29 C 136.39 179.93 136.67 180.66 137.27 181.32 C 139.47 180.88 141.76 179.74 144.00 179.76 C 147.53 182.56 145.46 185.97 142.06 187.40 C 139.76 188.39 138.84 186.99 136.95 185.97 C 139.20 185.19 144.16 185.87 143.59 182.16 C 141.36 182.45 139.30 183.31 137.10 183.67 C 133.87 182.94 133.69 178.94 136.31 177.23 C 138.69 175.34 140.44 176.14 142.92 177.35 Z" fill="#000000" />
<path d="M 67.01 180.03 C 69.74 180.05 70.87 181.88 72.58 183.64 C 72.89 183.45 73.21 183.25 73.52 183.06 C 76.97 184.47 80.38 185.88 84.02 186.70 C 85.97 187.28 87.84 187.37 89.25 188.98 C 89.29 190.38 88.85 191.63 88.48 192.96 C 88.25 194.89 88.96 196.92 86.89 197.97 C 84.54 198.83 81.20 197.39 78.75 197.02 C 79.42 194.03 80.11 191.05 80.78 188.06 C 79.72 187.70 78.66 187.33 77.59 186.97 C 76.55 189.79 75.48 192.61 74.41 195.42 L 72.14 194.58 C 73.18 191.74 74.26 188.90 75.33 186.07 C 74.48 185.72 73.63 185.37 72.78 185.02 C 71.90 187.21 71.35 189.89 69.12 191.14 C 65.75 193.13 60.75 190.18 61.10 186.20 C 61.43 183.36 63.80 179.79 67.01 180.03 Z" fill="#000000" />
<path d="M 135.19 183.10 C 133.49 183.36 132.19 183.38 130.51 183.00 C 129.76 183.95 128.05 184.44 128.94 185.84 C 131.22 185.69 133.53 185.08 135.79 185.16 C 137.36 186.54 138.12 188.86 136.48 190.51 C 134.09 193.01 130.37 193.81 128.46 190.26 C 131.50 189.96 134.79 191.64 135.21 187.31 C 132.90 187.54 130.36 188.42 128.06 188.05 C 125.62 186.09 125.99 183.15 128.72 181.70 C 131.56 180.11 133.04 181.06 135.19 183.10 Z" fill="#000000" />
<path d="M 66.36 182.33 C 68.05 181.73 70.16 183.08 70.01 184.99 C 70.13 187.27 67.42 190.80 65.07 189.25 C 62.00 187.71 64.01 183.48 66.36 182.33 Z" fill="#ffffff" />
<path d="M 121.95 184.82 C 124.25 187.89 126.88 190.77 128.96 193.99 C 127.88 195.86 126.23 194.33 125.13 193.34 C 124.01 193.66 122.90 193.98 121.78 194.30 C 121.70 195.16 121.62 196.01 121.54 196.86 C 120.77 197.12 120.00 197.39 119.23 197.66 C 119.28 193.74 119.26 189.81 119.53 185.90 C 120.33 185.53 121.14 185.17 121.95 184.82 Z" fill="#000000" />
<path d="M 83.16 188.44 L 83.51 188.57 C 84.78 189.00 86.05 189.43 87.30 189.94 C 86.47 192.53 84.46 190.91 82.50 190.87 C 82.72 190.06 82.94 189.25 83.16 188.44 Z" fill="#ffffff" />
<path d="M 121.63 188.06 C 122.50 189.23 123.33 190.44 124.15 191.64 C 123.27 191.78 122.39 191.91 121.50 192.05 C 121.53 190.72 121.57 189.39 121.63 188.06 Z" fill="#ffffff" />
<path d="M 93.62 188.53 L 96.10 188.47 C 97.29 192.27 98.08 196.19 99.26 200.00 L 96.91 200.00 C 96.52 199.16 96.14 198.31 95.76 197.45 C 94.70 197.39 93.64 197.33 92.58 197.27 C 91.31 198.71 90.48 199.25 88.55 199.65 C 90.05 195.89 91.53 192.00 93.62 188.53 Z" fill="#000000" />
<path d="M 99.34 188.76 L 101.75 188.74 C 101.86 191.75 102.02 194.76 102.16 197.77 C 103.91 197.70 105.66 197.62 107.40 197.54 L 107.67 199.60 C 105.65 199.73 103.63 199.89 101.60 200.00 L 99.80 200.00 C 99.63 196.25 99.48 192.51 99.34 188.76 Z" fill="#000000" />
<path d="M 106.57 188.04 L 108.92 188.59 C 109.52 191.35 109.88 194.16 110.31 196.95 C 112.40 196.74 114.49 196.54 116.60 196.44 C 115.71 199.64 110.60 198.83 107.99 199.51 C 107.67 195.67 107.03 191.87 106.57 188.04 Z" fill="#000000" />
<path d="M 94.56 191.18 C 94.88 192.59 95.21 194.00 95.54 195.41 C 94.68 195.38 93.83 195.34 92.98 195.31 C 93.49 193.92 94.03 192.56 94.56 191.18 Z" fill="#ffffff" />
<path d="M 82.40 192.82 C 84.09 193.17 85.59 193.28 86.58 194.88 C 84.95 196.85 83.41 195.75 81.27 195.65 C 81.62 194.70 82.00 193.75 82.40 192.82 Z" fill="#ffffff" />
</svg>