<?xml version="1.0" encoding="UTF-8" standalone="no"?>
<!DOCTYPE svg PUBLIC "-//W3C//DTD SVG 1.1//EN" "http://www.w3.org/Graphics/SVG/1.1/DTD/svg11.dtd">
<svg xmlns="http://www.w3.org/2000/svg" version="1.1" viewBox="0 0 200 200" width="200.0pt" height="200.0pt">
<path d="M 0.00 0.00 L 200.00 0.00 L 200.00 200.00 L 0.00 200.00 L 0.00 0.00 Z" fill="#ffffff" />
<path d="M 99.30 39.01 C 97.91 40.03 96.54 41.06 95.24 42.18 C 93.77 41.74 92.37 41.69 91.06 42.03 C 91.38 42.98 92.11 43.70 93.28 44.21 L 92.31 45.12 C 90.58 44.13 88.89 42.70 86.98 42.10 C 85.16 41.85 83.28 41.88 81.44 41.82 C 81.89 41.31 82.34 40.80 82.79 40.29 C 71.33 40.34 59.86 40.27 48.40 40.33 C 50.07 37.83 51.73 35.32 53.43 32.85 C 47.92 34.63 42.96 36.97 38.18 40.25 C 41.35 40.30 44.53 40.30 47.71 40.27 C 48.11 40.90 48.52 41.52 48.93 42.15 C 59.70 41.68 70.51 42.03 81.29 41.93 C 78.41 43.95 75.51 45.95 72.62 47.95 C 78.33 47.97 84.03 47.88 89.74 48.10 L 88.63 49.46 C 83.03 49.85 77.39 49.57 71.78 49.64 C 70.30 46.87 65.14 48.29 62.51 47.90 C 62.51 48.51 62.52 49.12 62.53 49.74 C 54.10 49.52 45.67 49.74 37.23 49.61 C 35.37 51.53 33.65 53.02 33.34 55.87 C 30.59 55.84 27.91 55.89 25.17 55.48 C 27.13 54.60 29.18 54.00 31.24 53.42 C 32.33 52.16 33.43 50.90 34.53 49.64 C 32.33 49.64 30.14 49.64 27.94 49.64 C 26.10 52.17 24.49 54.84 22.81 57.49 C 26.55 57.47 30.41 57.17 34.12 57.70 C 34.91 59.71 35.38 61.77 35.89 63.86 C 44.86 63.88 53.84 63.82 62.82 63.89 C 64.88 61.92 66.53 60.60 66.77 57.51 C 58.85 57.40 50.92 57.47 43.00 57.46 C 40.05 57.43 36.94 57.70 34.04 57.13 L 33.68 56.30 C 35.43 55.81 37.20 55.78 39.00 55.77 C 48.19 55.82 57.38 55.81 66.57 55.79 C 66.21 53.51 67.07 51.49 64.52 50.26 C 66.63 49.86 68.73 49.49 70.84 49.11 C 67.35 50.96 68.09 52.56 67.81 55.79 C 73.35 55.82 78.89 55.79 84.43 55.81 L 83.51 57.39 C 78.22 57.56 72.93 57.38 67.65 57.48 C 67.86 60.87 69.64 61.90 72.01 63.93 C 68.42 64.02 64.60 63.07 61.46 65.23 C 64.82 65.56 68.17 65.54 71.54 65.59 C 71.87 65.00 72.20 64.41 72.53 63.82 C 75.28 63.86 78.03 63.86 80.78 63.87 L 80.18 65.46 C 78.07 65.54 75.98 65.54 73.87 65.54 C 75.59 67.01 77.36 68.49 78.98 70.07 L 78.70 71.68 C 70.52 71.70 62.34 71.62 54.16 71.73 C 56.46 69.71 58.71 67.63 60.94 65.53 C 53.53 65.48 46.12 65.58 38.72 65.52 C 36.28 65.63 34.49 63.80 32.00 63.90 C 28.07 63.81 24.07 63.81 20.14 63.99 C 19.68 64.46 19.22 64.93 18.76 65.42 C 24.32 65.58 29.92 65.71 35.47 65.28 C 36.72 67.26 37.25 69.43 37.79 71.67 C 43.04 71.67 48.29 71.71 53.54 71.62 C 53.86 72.19 54.18 72.75 54.51 73.32 C 62.48 73.22 70.46 73.31 78.44 73.33 C 78.12 75.56 77.90 77.80 77.79 80.05 C 68.88 80.18 59.93 79.80 51.03 80.27 C 52.45 81.68 53.02 81.79 54.99 81.79 C 62.58 81.78 70.18 81.76 77.78 81.76 C 77.86 83.98 78.05 86.19 78.31 88.39 C 70.05 88.63 61.64 87.93 53.42 88.81 C 54.91 89.73 56.44 90.15 58.00 90.08 C 64.85 90.08 71.71 90.05 78.56 90.05 C 78.73 91.05 78.91 92.04 79.09 93.03 L 80.75 92.67 L 79.04 93.31 L 79.82 95.87 C 72.31 95.73 64.69 95.72 57.18 95.88 L 56.48 97.32 C 64.41 97.35 72.34 97.41 80.28 97.18 L 80.39 97.48 C 72.63 97.83 64.86 97.53 57.10 97.73 C 55.19 99.68 53.43 101.79 51.64 103.85 C 62.13 104.03 72.67 103.57 83.14 104.09 C 84.78 106.84 86.21 109.66 88.07 112.28 C 86.16 112.11 84.25 111.94 82.34 111.67 L 84.53 107.99 C 84.70 106.09 83.13 105.42 81.48 105.51 C 70.99 105.56 60.51 105.54 50.02 105.54 C 50.81 107.72 51.61 109.89 52.39 112.07 C 61.83 112.22 71.28 112.02 80.72 112.15 C 82.26 112.35 82.24 112.32 82.84 113.85 C 84.95 113.80 87.06 113.75 89.17 113.70 C 91.06 115.96 93.06 118.12 95.20 120.14 C 89.62 120.00 83.77 120.59 78.28 119.63 C 79.37 117.69 80.44 115.74 81.49 113.78 C 72.02 113.75 62.54 113.77 53.07 113.77 C 53.83 115.86 54.60 117.94 55.36 120.03 C 63.09 120.17 70.87 120.33 78.59 119.90 C 78.46 120.52 78.34 121.15 78.22 121.78 C 84.49 121.79 90.75 121.82 97.02 121.75 C 98.02 122.56 99.05 123.33 100.10 124.08 C 86.60 134.02 68.85 137.19 52.77 132.32 C 38.46 128.08 26.21 117.67 19.81 104.17 C 13.93 91.97 13.13 77.53 17.65 64.77 C 23.76 47.05 39.63 33.52 58.02 30.07 C 72.34 27.22 87.38 30.67 99.30 39.01 Z" fill="#181412" />
<path d="M 147.80 31.12 C 162.46 35.81 174.82 47.06 180.65 61.33 C 185.53 72.80 185.95 86.18 181.88 97.95 C 178.19 108.98 170.69 118.59 160.98 124.97 C 150.53 132.05 137.49 135.14 124.97 133.60 C 116.00 132.58 107.51 129.19 100.10 124.08 C 99.05 123.33 98.02 122.56 97.02 121.75 C 96.41 121.22 95.80 120.69 95.20 120.14 C 93.06 118.12 91.06 115.96 89.17 113.70 C 88.80 113.23 88.43 112.76 88.07 112.28 C 86.21 109.66 84.78 106.84 83.14 104.09 C 82.04 101.96 81.20 99.73 80.39 97.48 L 80.28 97.18 L 79.82 95.87 L 79.04 93.31 L 80.75 92.67 C 80.99 93.69 81.24 94.72 81.48 95.74 C 85.20 95.76 88.91 95.77 92.63 95.75 C 91.38 93.86 90.14 91.98 88.89 90.10 C 108.26 90.05 127.63 90.06 147.00 90.08 C 148.27 93.21 151.38 96.38 155.05 95.36 C 157.58 95.05 159.04 93.47 160.97 92.01 C 160.66 91.34 160.35 90.68 160.04 90.01 C 164.39 90.09 168.73 90.13 173.08 89.91 C 171.16 91.66 169.73 93.36 168.43 95.62 C 172.65 95.82 176.86 95.78 181.08 95.70 C 181.49 93.83 181.91 91.96 182.33 90.10 C 179.32 90.09 176.31 90.09 173.29 90.11 L 173.67 88.31 C 168.89 88.40 164.12 88.39 159.34 88.28 L 159.56 90.11 C 155.93 90.09 152.30 90.09 148.66 90.07 C 149.03 89.51 149.40 88.95 149.77 88.39 C 136.07 88.55 122.37 88.41 108.67 88.47 C 108.68 86.09 108.68 83.72 108.68 81.34 C 98.90 81.35 89.11 81.30 79.33 81.37 C 79.49 83.70 79.66 86.03 79.84 88.36 C 82.91 88.37 85.98 88.41 89.05 88.51 C 89.86 87.46 90.67 86.40 91.48 85.35 C 92.42 86.38 93.35 87.42 94.28 88.46 C 92.74 88.45 91.20 88.43 89.65 88.41 C 89.10 88.97 88.54 89.53 87.98 90.08 C 85.37 90.09 82.76 90.09 80.15 90.11 C 80.35 90.96 80.55 91.82 80.75 92.67 L 79.09 93.03 C 78.91 92.04 78.73 91.05 78.56 90.05 L 78.31 88.39 C 78.05 86.19 77.86 83.98 77.78 81.76 L 77.79 80.05 C 77.90 77.80 78.12 75.56 78.44 73.33 L 78.70 71.68 L 78.98 70.07 C 79.32 68.52 79.72 66.98 80.18 65.46 L 80.78 63.87 C 81.62 61.67 82.49 59.51 83.51 57.39 L 84.43 55.81 C 85.72 53.63 87.09 51.48 88.63 49.46 L 89.74 48.10 C 90.57 47.09 91.42 46.09 92.31 45.12 L 93.28 44.21 C 93.96 43.57 94.62 42.89 95.24 42.18 C 96.54 41.06 97.91 40.03 99.30 39.01 C 113.16 28.79 131.40 25.81 147.80 31.12 Z" fill="#b59201" />
<path d="M 147.11 32.49 C 136.58 32.73 125.89 32.73 115.35 32.49 C 125.77 29.31 136.70 29.28 147.11 32.49 Z" fill="#ffffff" />
<path d="M 54.05 32.81 C 62.91 32.74 71.76 32.77 80.62 32.79 L 80.76 33.96 C 71.85 33.94 62.93 33.98 54.02 33.93 L 54.05 32.81 Z" fill="#ffffff" />
<path d="M 80.76 32.29 C 82.06 32.67 83.35 33.06 84.64 33.47 C 89.11 34.90 93.08 37.20 97.25 39.31 C 96.75 39.66 96.26 40.00 95.76 40.34 C 91.68 40.28 87.85 40.71 83.99 39.10 C 82.93 36.82 81.83 34.56 80.76 32.29 Z" fill="#ffffff" />
<path d="M 53.43 32.85 C 51.73 35.32 50.07 37.83 48.40 40.33 C 59.86 40.27 71.33 40.34 82.79 40.29 C 82.34 40.80 81.89 41.31 81.44 41.82 C 83.28 41.88 85.16 41.85 86.98 42.10 C 88.89 42.70 90.58 44.13 92.31 45.12 C 91.42 46.09 90.57 47.09 89.74 48.10 C 84.03 47.88 78.33 47.97 72.62 47.95 C 75.51 45.95 78.41 43.95 81.29 41.93 C 70.51 42.03 59.70 41.68 48.93 42.15 C 48.52 41.52 48.11 40.90 47.71 40.27 C 44.53 40.30 41.35 40.30 38.18 40.25 C 42.96 36.97 47.92 34.63 53.43 32.85 Z" fill="#ffffff" />
<path d="M 113.98 34.29 C 125.66 34.33 137.34 34.33 149.02 34.29 C 153.76 33.92 158.41 37.83 162.24 40.22 C 141.59 40.33 120.94 40.34 100.29 40.22 C 104.43 37.62 108.82 33.86 113.98 34.29 Z" fill="#ffffff" />
<path d="M 35.99 41.97 C 39.25 41.85 42.53 41.93 45.79 41.90 C 42.50 43.55 39.57 45.70 36.48 47.65 C 34.33 48.27 31.71 47.86 29.47 47.93 C 31.56 45.82 33.63 43.78 35.99 41.97 Z" fill="#ffffff" />
<path d="M 91.06 42.03 C 92.37 41.69 93.77 41.74 95.24 42.18 C 94.62 42.89 93.96 43.57 93.28 44.21 C 92.11 43.70 91.38 42.98 91.06 42.03 Z" fill="#ffffff" />
<path d="M 98.15 42.19 C 101.69 41.62 105.42 41.97 109.00 41.91 C 126.00 41.89 143.00 41.97 160.00 41.87 C 161.50 41.93 163.22 41.79 164.64 42.33 C 166.89 43.79 168.74 45.97 170.61 47.88 C 144.38 47.96 118.15 47.96 91.93 47.88 C 93.88 45.94 95.78 43.60 98.15 42.19 Z" fill="#ffffff" />
<path d="M 49.10 42.44 C 52.97 43.70 56.48 46.13 60.12 47.94 C 53.14 47.94 46.17 48.03 39.20 47.89 C 42.30 45.77 45.47 43.57 49.10 42.44 Z" fill="#ffffff" />
<path d="M 62.51 47.90 C 65.14 48.29 70.30 46.87 71.78 49.64 C 77.39 49.57 83.03 49.85 88.63 49.46 C 87.09 51.48 85.72 53.63 84.43 55.81 C 78.89 55.79 73.35 55.82 67.81 55.79 C 68.09 52.56 67.35 50.96 70.84 49.11 C 68.73 49.49 66.63 49.86 64.52 50.26 C 67.07 51.49 66.21 53.51 66.57 55.79 C 57.38 55.81 48.19 55.82 39.00 55.77 C 37.20 55.78 35.43 55.81 33.68 56.30 L 34.04 57.13 C 36.94 57.70 40.05 57.43 43.00 57.46 C 50.92 57.47 58.85 57.40 66.77 57.51 C 66.53 60.60 64.88 61.92 62.82 63.89 C 53.84 63.82 44.86 63.88 35.89 63.86 C 35.38 61.77 34.91 59.71 34.12 57.70 C 30.41 57.17 26.55 57.47 22.81 57.49 C 24.49 54.84 26.10 52.17 27.94 49.64 C 30.14 49.64 32.33 49.64 34.53 49.64 C 33.43 50.90 32.33 52.16 31.24 53.42 C 29.18 54.00 27.13 54.60 25.17 55.48 C 27.91 55.89 30.59 55.84 33.34 55.87 C 33.65 53.02 35.37 51.53 37.23 49.61 C 45.67 49.74 54.10 49.52 62.53 49.74 C 62.52 49.12 62.51 48.51 62.51 47.90 Z" fill="#ffffff" />
<path d="M 163.47 49.78 C 167.12 49.67 170.42 49.07 173.80 50.86 C 173.22 51.24 172.65 51.61 172.06 51.98 C 169.24 51.06 166.35 50.46 163.47 49.78 Z" fill="#ffffff" />
<path d="M 90.64 49.67 C 113.70 49.61 136.80 49.71 159.86 49.63 C 156.72 51.43 153.69 53.37 150.89 55.69 C 158.50 55.96 166.13 55.72 173.75 55.86 C 173.95 54.75 174.15 53.65 174.36 52.54 C 174.88 53.44 175.40 54.34 175.91 55.24 C 175.00 55.96 174.09 56.69 173.18 57.43 C 165.60 57.50 158.02 57.36 150.43 57.52 L 150.25 55.76 C 128.91 55.78 107.56 55.82 86.22 55.74 C 87.62 53.66 89.01 51.59 90.64 49.67 Z" fill="#ffffff" />
<path d="M 67.65 57.48 C 72.93 57.38 78.22 57.56 83.51 57.39 C 82.49 59.51 81.62 61.67 80.78 63.87 C 78.03 63.86 75.28 63.86 72.53 63.82 C 72.20 64.41 71.87 65.00 71.54 65.59 C 68.17 65.54 64.82 65.56 61.46 65.23 C 64.60 63.07 68.42 64.02 72.01 63.93 C 69.64 61.90 67.86 60.87 67.65 57.48 Z" fill="#ffffff" />
<path d="M 85.44 57.63 C 86.28 57.52 87.11 57.45 87.96 57.44 C 108.27 57.45 128.59 57.50 148.90 57.42 C 147.17 59.51 145.48 61.64 143.83 63.79 C 152.89 63.88 161.95 63.84 171.01 63.77 C 173.03 63.80 174.69 63.67 176.27 65.22 C 165.72 65.82 155.09 65.26 144.52 65.53 C 143.96 64.97 143.40 64.40 142.84 63.84 C 122.70 63.81 102.56 63.86 82.43 63.81 C 83.34 61.74 84.18 59.52 85.44 57.63 Z" fill="#ffffff" />
<path d="M 174.12 57.01 C 178.45 57.26 178.44 60.72 180.07 63.82 C 178.47 63.81 176.87 63.80 175.28 63.78 C 174.79 61.54 174.41 59.30 174.12 57.01 Z" fill="#ffffff" />
<path d="M 20.14 63.99 C 24.07 63.81 28.07 63.81 32.00 63.90 C 34.49 63.80 36.28 65.63 38.72 65.52 C 46.12 65.58 53.53 65.48 60.94 65.53 C 58.71 67.63 56.46 69.71 54.16 71.73 C 62.34 71.62 70.52 71.70 78.70 71.68 L 78.44 73.33 C 70.46 73.31 62.48 73.22 54.51 73.32 C 54.18 72.75 53.86 72.19 53.54 71.62 C 48.29 71.71 43.04 71.67 37.79 71.67 C 37.25 69.43 36.72 67.26 35.47 65.28 C 29.92 65.71 24.32 65.58 18.76 65.42 C 19.22 64.93 19.68 64.46 20.14 63.99 Z" fill="#ffffff" />
<path d="M 80.18 65.46 C 79.72 66.98 79.32 68.52 78.98 70.07 C 77.36 68.49 75.59 67.01 73.87 65.54 C 75.98 65.54 78.07 65.54 80.18 65.46 Z" fill="#ffffff" />
<path d="M 81.92 65.61 C 90.72 65.34 99.53 65.71 108.33 65.41 C 108.52 67.49 108.68 69.57 108.84 71.65 C 99.31 71.63 89.77 71.69 80.23 71.61 C 80.77 69.60 81.29 67.58 81.92 65.61 Z" fill="#ffffff" />
<path d="M 111.30 65.59 C 121.69 65.47 132.10 65.47 142.49 65.62 C 140.74 67.44 138.84 70.57 136.06 70.77 C 133.09 69.98 130.21 67.43 127.13 67.25 C 125.26 68.26 123.94 70.24 122.19 71.47 C 119.48 71.83 116.66 71.67 113.93 71.64 C 112.79 69.45 111.61 67.95 109.65 66.40 C 110.20 66.12 110.75 65.85 111.30 65.59 Z" fill="#ffffff" />
<path d="M 176.07 65.56 C 177.57 65.53 179.07 65.50 180.57 65.48 C 181.14 67.53 181.70 69.58 182.24 71.64 C 179.86 71.64 177.48 71.64 175.11 71.64 C 175.42 69.61 175.74 67.58 176.07 65.56 Z" fill="#ffffff" />
<path d="M 19.97 71.69 C 25.74 71.62 31.52 71.74 37.30 71.68 L 37.45 73.36 C 30.46 73.23 23.44 73.55 16.47 73.16 C 17.35 72.05 18.52 71.55 19.97 71.69 Z" fill="#ffffff" />
<path d="M 121.98 71.62 C 138.39 71.65 154.80 71.70 171.21 71.60 C 171.61 72.22 172.03 72.81 172.48 73.39 C 175.83 73.32 179.17 73.31 182.52 73.32 C 182.72 75.36 182.93 77.40 183.13 79.44 L 178.83 80.18 C 180.26 80.75 181.71 81.26 183.17 81.76 C 182.98 83.98 182.78 86.19 182.57 88.41 C 180.07 88.39 177.58 88.40 175.08 88.45 C 176.78 86.81 178.34 85.12 179.82 83.28 C 179.25 82.56 178.67 81.84 178.08 81.13 C 176.74 81.20 175.39 81.26 174.04 81.31 C 172.97 80.58 171.90 79.85 170.82 79.13 C 170.34 79.88 169.86 80.63 169.38 81.37 C 149.31 81.23 129.22 81.36 109.14 81.30 L 109.09 79.66 C 128.92 79.70 148.76 79.55 168.59 79.70 C 168.31 76.56 167.94 75.31 170.58 73.11 C 164.08 73.57 157.52 73.26 151.00 73.34 C 141.54 73.27 132.07 73.48 122.62 73.25 L 121.98 71.62 Z" fill="#ffffff" />
<path d="M 42.53 73.35 C 45.91 73.29 49.29 73.30 52.67 73.33 C 51.91 73.98 51.15 74.63 50.40 75.28 C 47.78 74.63 45.15 74.01 42.53 73.35 Z" fill="#ffffff" />
<path d="M 80.11 73.47 C 89.61 73.08 99.18 73.46 108.70 73.30 C 108.68 75.42 108.67 77.54 108.66 79.66 C 98.88 79.64 89.09 79.70 79.31 79.63 C 79.53 77.58 79.68 75.49 80.11 73.47 Z" fill="#ffffff" />
<path d="M 37.29 74.03 C 41.69 74.41 46.04 75.95 50.37 76.82 C 50.71 77.90 51.04 78.98 51.38 80.06 C 44.50 80.11 37.63 80.07 30.75 80.08 C 32.88 78.05 34.90 75.75 37.29 74.03 Z" fill="#ffffff" />
<path d="M 114.04 73.33 C 116.54 73.33 119.04 73.32 121.54 73.33 C 120.08 75.43 118.70 77.50 116.92 79.34 C 114.08 78.37 114.70 75.72 114.04 73.33 Z" fill="#ffffff" />
<path d="M 175.55 75.42 C 177.66 76.25 178.65 77.93 180.12 79.56 C 177.84 79.62 175.56 79.64 173.28 79.63 C 174.02 78.19 174.69 76.78 175.55 75.42 Z" fill="#b59201" />
<path d="M 16.50 80.19 C 20.90 79.93 25.34 80.19 29.75 80.04 C 29.62 80.58 29.49 81.12 29.37 81.67 C 36.88 81.82 44.40 81.67 51.91 81.74 C 52.57 83.95 53.23 86.15 53.89 88.35 C 44.02 88.38 34.15 88.45 24.28 88.32 C 24.75 85.69 26.53 84.19 27.97 82.10 C 24.28 81.36 20.24 81.81 16.49 81.79 C 19.30 83.94 22.59 84.57 23.53 88.32 C 21.29 88.38 19.04 88.39 16.80 88.40 C 16.61 85.68 16.39 82.90 16.50 80.19 Z" fill="#ffffff" />
<path d="M 51.03 80.27 C 59.93 79.80 68.88 80.18 77.79 80.05 L 77.78 81.76 C 70.18 81.76 62.58 81.78 54.99 81.79 C 53.02 81.79 52.45 81.68 51.03 80.27 Z" fill="#ffffff" />
<path d="M 108.68 81.34 C 108.68 83.72 108.68 86.09 108.67 88.47 C 122.37 88.41 136.07 88.55 149.77 88.39 C 149.40 88.95 149.03 89.51 148.66 90.07 C 152.30 90.09 155.93 90.09 159.56 90.11 L 159.34 88.28 C 164.12 88.39 168.89 88.40 173.67 88.31 L 173.29 90.11 C 176.31 90.09 179.32 90.09 182.33 90.10 C 181.91 91.96 181.49 93.83 181.08 95.70 C 176.86 95.78 172.65 95.82 168.43 95.62 C 169.73 93.36 171.16 91.66 173.08 89.91 C 168.73 90.13 164.39 90.09 160.04 90.01 C 160.35 90.68 160.66 91.34 160.97 92.01 C 159.04 93.47 157.58 95.05 155.05 95.36 C 151.38 96.38 148.27 93.21 147.00 90.08 C 127.63 90.06 108.26 90.05 88.89 90.10 C 90.14 91.98 91.38 93.86 92.63 95.75 C 88.91 95.77 85.20 95.76 81.48 95.74 C 81.24 94.72 80.99 93.69 80.75 92.67 C 80.55 91.82 80.35 90.96 80.15 90.11 C 82.76 90.09 85.37 90.09 87.98 90.08 C 88.54 89.53 89.10 88.97 89.65 88.41 C 91.20 88.43 92.74 88.45 94.28 88.46 C 93.35 87.42 92.42 86.38 91.48 85.35 C 90.67 86.40 89.86 87.46 89.05 88.51 C 85.98 88.41 82.91 88.37 79.84 88.36 C 79.66 86.03 79.49 83.70 79.33 81.37 C 89.11 81.30 98.90 81.35 108.68 81.34 Z" fill="#ffffff" />
<path d="M 78.31 88.39 L 78.56 90.05 C 71.71 90.05 64.85 90.08 58.00 90.08 C 56.44 90.15 54.91 89.73 53.42 88.81 C 61.64 87.93 70.05 88.63 78.31 88.39 Z" fill="#ffffff" />
<path d="M 17.09 90.05 C 19.13 90.05 21.17 90.06 23.21 90.06 C 23.69 91.98 24.19 93.89 24.70 95.79 C 22.58 95.78 20.46 95.77 18.34 95.76 C 17.97 94.09 17.60 92.42 17.24 90.74 L 17.09 90.05 Z" fill="#ffffff" />
<path d="M 24.92 90.08 C 34.76 90.03 44.60 90.06 54.45 90.07 C 55.00 91.97 55.57 93.87 56.13 95.77 C 46.25 95.76 36.38 95.79 26.50 95.76 C 25.96 93.87 25.43 91.98 24.92 90.08 Z" fill="#ffffff" />
<path d="M 57.18 95.88 C 64.69 95.72 72.31 95.73 79.82 95.87 L 80.28 97.18 C 72.34 97.41 64.41 97.35 56.48 97.32 L 57.18 95.88 Z" fill="#ffffff" />
<path d="M 93.74 95.81 C 118.44 95.84 143.13 95.76 167.82 95.83 L 167.95 97.39 C 143.23 97.46 118.51 97.44 93.79 97.41 L 93.74 95.81 Z" fill="#ffffff" />
<path d="M 18.89 97.46 C 21.05 97.44 23.20 97.44 25.35 97.43 C 26.58 99.62 27.86 101.77 29.20 103.90 C 26.61 103.88 24.01 103.86 21.42 103.83 C 20.55 101.71 19.71 99.59 18.89 97.46 Z" fill="#ffffff" />
<path d="M 55.33 97.44 C 53.43 99.57 51.54 101.71 49.65 103.86 C 43.52 103.88 37.38 103.88 31.25 103.86 C 29.83 101.77 28.48 99.64 27.18 97.47 C 36.57 97.39 45.95 97.46 55.33 97.44 Z" fill="#ffffff" />
<path d="M 82.17 97.53 C 85.92 97.32 89.70 97.45 93.46 97.46 C 94.07 99.67 94.80 101.83 95.72 103.94 C 92.01 103.83 88.30 103.84 84.59 103.77 C 83.74 101.71 82.82 99.66 82.17 97.53 Z" fill="#ffffff" />
<path d="M 57.10 97.73 C 64.86 97.53 72.63 97.83 80.39 97.48 C 81.20 99.73 82.04 101.96 83.14 104.09 C 72.67 103.57 62.13 104.03 51.64 103.85 C 53.43 101.79 55.19 99.68 57.10 97.73 Z" fill="#ffffff" />
<path d="M 168.23 97.70 C 172.24 97.11 176.45 97.52 180.50 97.49 C 179.61 99.61 178.72 101.72 177.82 103.83 C 173.06 103.86 168.30 103.84 163.54 103.83 C 165.05 101.77 166.48 99.57 168.23 97.70 Z" fill="#ffffff" />
<path d="M 102.00 103.83 C 120.99 103.92 140.03 103.85 159.03 103.86 C 160.38 103.75 161.55 104.20 162.55 105.23 C 155.40 105.76 148.17 105.37 141.00 105.48 C 126.33 105.36 111.61 105.75 96.95 105.28 C 98.37 103.59 100.04 103.92 102.00 103.83 Z" fill="#ffffff" />
<path d="M 22.33 105.56 C 25.15 105.54 27.97 105.54 30.79 105.56 C 29.96 107.58 29.13 109.60 28.27 111.61 C 35.70 112.78 43.47 111.70 50.97 112.23 C 51.75 112.60 52.50 113.02 53.23 113.50 C 44.92 114.06 36.55 113.62 28.22 113.77 C 28.35 113.16 28.48 112.55 28.61 111.93 C 25.98 112.62 25.14 109.82 23.86 108.14 C 23.34 107.28 22.83 106.42 22.33 105.56 Z" fill="#ffffff" />
<path d="M 50.02 105.54 C 60.51 105.54 70.99 105.56 81.48 105.51 C 83.13 105.42 84.70 106.09 84.53 107.99 L 82.34 111.67 C 84.25 111.94 86.16 112.11 88.07 112.28 C 88.43 112.76 88.80 113.23 89.17 113.70 C 87.06 113.75 84.95 113.80 82.84 113.85 C 82.24 112.32 82.26 112.35 80.72 112.15 C 71.28 112.02 61.83 112.22 52.39 112.07 C 51.61 109.89 50.81 107.72 50.02 105.54 Z" fill="#ffffff" />
<path d="M 85.59 105.60 C 89.08 105.57 92.59 105.39 96.07 105.61 C 97.88 105.64 99.11 106.70 100.26 107.95 C 100.05 109.39 99.67 110.78 99.30 112.18 C 96.17 112.12 93.05 112.13 89.92 112.15 C 88.44 109.99 87.00 107.80 85.59 105.60 Z" fill="#ffffff" />
<path d="M 161.93 105.78 C 166.86 105.22 171.94 105.67 176.91 105.60 C 175.02 107.95 173.80 112.78 170.03 112.14 C 164.60 112.21 159.16 112.11 153.73 112.09 C 156.07 109.82 158.79 106.86 161.93 105.78 Z" fill="#ffffff" />
<path d="M 109.00 112.14 C 123.43 112.16 137.86 112.16 152.29 112.14 L 152.24 113.86 C 158.56 113.70 164.88 113.74 171.21 113.82 C 169.20 116.01 167.13 118.12 164.97 120.17 C 157.23 120.11 149.49 120.20 141.75 120.11 C 145.35 118.15 148.73 116.03 152.05 113.63 C 137.04 113.86 122.02 113.63 107.00 113.76 C 104.01 113.80 101.04 113.71 98.10 113.14 C 101.75 111.70 105.19 112.18 109.00 112.14 Z" fill="#ffffff" />
<path d="M 53.07 113.77 C 62.54 113.77 72.02 113.75 81.49 113.78 C 80.44 115.74 79.37 117.69 78.28 119.63 C 83.77 120.59 89.62 120.00 95.20 120.14 C 95.80 120.69 96.41 121.22 97.02 121.75 C 90.75 121.82 84.49 121.79 78.22 121.78 C 78.34 121.15 78.46 120.52 78.59 119.90 C 70.87 120.33 63.09 120.17 55.36 120.03 C 54.60 117.94 53.83 115.86 53.07 113.77 Z" fill="#ffffff" />
<path d="M 91.25 113.75 C 93.58 113.87 96.48 113.38 98.68 114.22 C 100.20 116.02 101.28 118.24 102.43 120.28 C 100.79 120.11 98.84 120.33 97.30 119.70 C 94.99 118.14 93.12 115.79 91.25 113.75 Z" fill="#ffffff" />
<path d="M 34.88 120.24 C 41.82 120.12 48.81 119.99 55.74 120.32 C 54.98 121.39 54.07 121.87 53.02 121.77 C 47.53 121.82 41.99 121.91 36.50 121.67 C 35.96 121.20 35.42 120.72 34.88 120.24 Z" fill="#ffffff" />
<path d="M 104.33 120.20 C 116.25 120.25 128.30 119.71 140.20 120.51 C 135.80 122.33 131.61 121.74 127.00 121.80 C 119.41 121.69 111.79 122.02 104.22 121.56 C 104.15 122.13 104.08 122.69 104.01 123.26 C 105.58 123.89 107.30 124.76 109.01 124.92 C 111.98 124.14 113.88 122.07 116.99 122.22 C 123.25 122.12 129.54 122.59 135.79 122.27 C 144.71 121.40 153.77 121.87 162.72 121.86 C 158.41 124.74 153.46 128.81 148.00 128.35 C 136.66 128.28 125.33 128.30 114.00 128.34 C 109.05 128.74 104.77 124.82 100.40 122.76 C 101.74 121.94 103.05 121.10 104.33 120.20 Z" fill="#ffffff" />
<path d="M 55.28 122.00 C 62.71 121.67 70.34 121.71 77.78 121.98 C 74.93 124.39 71.57 124.66 68.00 124.80 C 63.56 124.79 59.19 124.22 55.28 122.00 Z" fill="#ffffff" />
<path d="M 55.98 124.74 C 63.41 126.94 69.63 127.24 77.11 125.00 C 78.39 126.06 79.66 127.12 80.94 128.18 C 71.33 128.19 61.73 128.23 52.12 128.16 C 53.39 127.00 54.65 125.83 55.98 124.74 Z" fill="#ffffff" />
<path d="M 50.89 129.93 C 57.59 129.75 64.30 129.88 71.00 129.84 C 75.49 129.87 79.73 129.63 84.18 130.22 C 74.62 133.66 63.74 133.64 54.00 130.92 C 52.96 130.60 51.92 130.27 50.89 129.93 Z" fill="#ffffff" />
<path d="M 127.00 129.90 C 133.57 129.98 140.04 129.65 146.59 130.44 C 141.71 131.43 137.01 132.37 132.00 132.44 C 126.58 132.53 121.29 131.55 116.00 130.46 C 119.66 130.02 123.32 129.85 127.00 129.90 Z" fill="#ffffff" />
<path d="M 39.97 144.11 C 42.17 144.29 42.77 145.87 44.03 147.42 C 41.60 146.92 39.22 146.29 36.74 146.14 C 38.53 148.91 43.89 148.49 43.95 151.89 C 42.43 156.23 34.55 155.84 34.17 150.59 C 35.99 151.11 37.19 151.79 38.58 153.03 C 39.66 152.67 40.63 152.25 41.62 151.71 C 39.57 150.60 35.83 150.23 34.69 148.01 C 34.18 144.87 37.46 143.84 39.97 144.11 Z" fill="#181412" />
<path d="M 48.44 144.47 C 52.38 143.12 56.82 145.47 56.27 150.02 C 56.06 154.74 49.82 156.14 46.63 153.37 C 44.02 150.73 44.71 145.72 48.44 144.47 Z" fill="#181412" />
<path d="M 58.12 144.67 C 58.97 144.47 59.83 144.28 60.69 144.11 C 60.75 147.06 60.81 149.99 61.22 152.92 C 62.10 152.54 63.89 152.56 64.37 151.65 C 64.69 149.26 64.53 146.78 64.56 144.38 L 67.38 144.40 C 67.33 147.17 67.59 150.14 66.96 152.85 C 65.12 155.44 59.94 155.52 58.37 152.64 C 57.66 150.13 57.84 147.25 58.12 144.67 Z" fill="#181412" />
<path d="M 77.77 144.38 C 77.78 145.04 77.79 145.69 77.80 146.35 C 76.74 146.38 75.67 146.41 74.61 146.44 C 74.58 149.13 74.58 151.81 74.57 154.49 C 73.63 154.47 72.69 154.46 71.75 154.44 C 71.75 151.80 71.75 149.17 71.76 146.54 C 70.79 146.44 69.83 146.34 68.86 146.23 L 68.25 144.48 C 71.42 144.36 74.60 144.37 77.77 144.38 Z" fill="#181412" />
<path d="M 79.15 144.67 C 80.04 144.46 80.93 144.28 81.83 144.11 C 81.89 145.38 81.94 146.66 82.00 147.93 C 83.28 147.94 84.56 147.95 85.84 147.96 C 85.86 146.78 85.87 145.59 85.88 144.41 L 88.68 144.39 C 88.70 147.75 88.70 151.10 88.69 154.46 L 85.88 154.46 C 85.87 153.05 85.86 151.63 85.85 150.22 C 84.56 150.22 83.27 150.22 81.98 150.22 C 81.96 151.64 81.94 153.05 81.92 154.47 C 80.95 154.46 79.98 154.45 79.01 154.43 C 79.02 151.19 78.82 147.90 79.15 144.67 Z" fill="#181412" />
<path d="M 98.57 144.54 C 99.53 144.41 100.49 144.33 101.47 144.30 C 102.96 147.75 104.28 151.27 105.48 154.82 C 103.34 154.42 102.42 153.98 101.02 152.36 C 98.76 152.99 96.64 153.96 94.48 154.85 C 95.73 151.40 96.86 147.80 98.57 144.54 Z" fill="#181412" />
<path d="M 114.62 144.39 C 114.61 145.08 114.61 145.76 114.61 146.45 C 112.91 146.46 111.21 146.47 109.51 146.49 L 109.44 148.55 C 110.94 148.57 112.45 148.58 113.95 148.59 C 113.98 149.27 114.01 149.95 114.03 150.62 C 112.53 150.65 111.03 150.67 109.52 150.69 C 109.49 151.95 109.46 153.21 109.43 154.47 L 106.67 154.46 C 106.67 151.11 106.66 147.75 106.66 144.40 C 109.31 144.38 111.97 144.38 114.62 144.39 Z" fill="#181412" />
<path d="M 116.19 144.47 C 118.89 144.36 122.34 143.94 124.81 145.20 C 126.22 146.59 125.02 148.06 124.58 149.58 C 124.94 151.33 125.27 153.09 125.59 154.84 L 122.87 154.13 C 122.54 153.05 122.26 151.95 122.03 150.84 C 121.00 150.77 119.98 150.71 118.96 150.64 C 118.95 151.91 118.94 153.18 118.92 154.45 C 117.97 154.44 117.02 154.44 116.07 154.44 C 116.08 151.13 115.90 147.77 116.19 144.47 Z" fill="#181412" />
<path d="M 138.00 144.11 C 140.62 144.05 141.60 145.70 143.08 147.46 C 142.30 147.55 141.52 147.63 140.74 147.72 C 139.20 147.00 138.25 145.77 136.44 146.47 C 134.72 147.97 134.90 150.48 135.99 152.30 C 138.23 152.97 140.79 151.10 143.00 150.64 C 142.38 151.82 141.66 152.91 140.83 153.91 C 137.81 155.80 133.16 154.58 132.40 150.81 C 131.57 147.04 134.17 143.99 138.00 144.11 Z" fill="#181412" />
<path d="M 147.41 144.50 C 148.36 144.40 149.31 144.36 150.27 144.36 C 151.73 147.79 153.04 151.28 154.28 154.79 C 152.07 154.42 151.28 154.06 149.84 152.38 C 147.54 152.95 145.43 153.94 143.27 154.88 C 144.50 151.40 145.61 147.73 147.41 144.50 Z" fill="#181412" />
<path d="M 155.53 144.49 C 156.48 144.40 157.43 144.35 158.38 144.34 C 159.79 146.39 161.07 148.56 162.36 150.68 C 162.35 148.58 162.34 146.48 162.34 144.37 L 165.09 144.42 C 165.09 147.76 165.09 151.10 165.06 154.44 C 164.09 154.48 163.12 154.52 162.15 154.56 C 160.73 152.46 159.37 150.33 158.08 148.16 C 158.09 150.28 158.09 152.40 158.07 154.52 C 157.19 154.49 156.30 154.47 155.41 154.44 C 155.43 151.13 155.25 147.78 155.53 144.49 Z" fill="#181412" />
<path d="M 127.61 144.40 L 130.40 144.38 C 130.39 147.74 130.39 151.10 130.39 154.46 L 127.60 154.46 C 127.60 151.11 127.60 147.75 127.61 144.40 Z" fill="#181412" />
<path d="M 49.42 146.39 C 53.98 144.86 54.94 152.21 50.85 152.66 C 47.44 152.88 47.16 147.94 49.42 146.39 Z" fill="#ffffff" />
<path d="M 119.36 146.35 C 120.78 146.44 122.16 146.70 123.55 146.96 C 122.06 148.62 120.81 148.68 118.69 148.96 C 118.89 148.08 119.12 147.21 119.36 146.35 Z" fill="#ffffff" />
<path d="M 148.78 147.18 C 149.55 148.30 150.05 149.51 149.67 150.88 C 148.80 150.87 148.06 150.66 147.43 150.24 C 147.47 149.12 147.92 148.10 148.78 147.18 Z" fill="#ffffff" />
<path d="M 99.94 148.08 C 101.66 148.36 101.90 150.76 100.02 150.98 C 98.24 150.82 98.14 148.28 99.94 148.08 Z" fill="#ffffff" />
<path d="M 0.38 161.23 C 3.05 161.24 5.72 161.25 8.38 161.27 C 8.35 161.97 8.32 162.66 8.29 163.35 C 6.57 163.36 4.85 163.37 3.13 163.38 C 3.14 164.07 3.14 164.76 3.14 165.45 C 4.63 165.46 6.12 165.47 7.60 165.49 L 7.63 167.50 C 6.13 167.51 4.64 167.51 3.15 167.52 C 3.14 168.80 3.13 170.08 3.13 171.36 L 0.33 171.35 C 0.32 167.97 0.33 164.60 0.38 161.23 Z" fill="#181412" />
<path d="M 12.42 161.44 C 14.84 160.43 18.25 160.97 19.73 163.31 C 20.87 165.36 20.84 168.37 19.09 170.09 C 17.13 172.03 13.59 172.11 11.34 170.65 C 8.30 168.38 8.69 162.83 12.42 161.44 Z" fill="#181412" />
<path d="M 24.51 161.64 C 26.70 160.53 29.69 160.74 31.50 162.50 C 33.80 164.74 33.53 169.08 30.72 170.80 C 28.83 171.87 26.10 171.92 24.18 170.89 C 20.89 168.87 20.97 163.37 24.51 161.64 Z" fill="#181412" />
<path d="M 34.16 161.42 C 37.08 161.06 40.10 161.27 43.04 161.27 L 43.08 163.28 C 42.01 163.29 40.95 163.31 39.89 163.33 C 39.87 166.00 39.86 168.67 39.85 171.34 C 38.92 171.35 37.98 171.37 37.04 171.38 C 37.00 168.69 36.98 166.00 36.97 163.32 C 35.78 163.30 34.59 163.27 33.40 163.25 C 33.64 162.63 33.89 162.02 34.16 161.42 Z" fill="#181412" />
<path d="M 44.44 161.35 C 47.21 161.15 50.46 160.92 53.07 162.03 C 53.47 163.36 53.34 164.76 52.69 166.25 C 53.24 166.93 53.80 167.61 54.37 168.29 C 53.63 169.18 52.99 170.42 51.96 170.99 C 49.52 171.57 46.83 171.33 44.34 171.38 C 44.34 168.05 44.17 164.67 44.44 161.35 Z" fill="#181412" />
<path d="M 58.67 161.45 C 59.62 161.29 60.57 161.18 61.53 161.13 C 63.06 164.61 64.40 168.18 65.62 171.78 C 63.73 171.06 61.94 170.09 60.02 169.48 C 58.15 170.10 56.43 171.06 54.59 171.77 C 55.81 168.29 56.99 164.73 58.67 161.45 Z" fill="#181412" />
<path d="M 66.84 161.24 C 67.78 161.25 68.72 161.26 69.66 161.27 C 69.67 163.91 69.67 166.55 69.68 169.19 C 71.48 169.20 73.28 169.21 75.08 169.22 L 75.12 171.36 C 72.36 171.36 69.59 171.36 66.83 171.36 C 66.82 167.98 66.82 164.61 66.84 161.24 Z" fill="#181412" />
<path d="M 93.48 161.40 C 94.43 161.28 95.38 161.21 96.34 161.19 C 97.80 164.64 99.13 168.16 100.37 171.69 C 98.17 171.28 97.36 171.00 95.96 169.28 C 93.67 169.87 91.53 170.83 89.35 171.73 C 90.59 168.27 91.71 164.63 93.48 161.40 Z" fill="#181412" />
<path d="M 104.08 161.12 C 107.43 160.40 108.96 161.67 110.61 164.38 C 108.19 163.87 105.82 163.22 103.36 162.95 C 104.88 165.91 111.03 165.35 110.36 169.02 C 108.63 173.12 101.54 172.45 100.48 167.79 C 102.72 168.05 103.51 168.29 105.09 169.89 C 106.17 169.51 107.24 169.10 108.30 168.66 C 106.24 167.76 103.94 167.17 102.02 165.98 C 100.04 164.07 101.78 161.54 104.08 161.12 Z" fill="#181412" />
<path d="M 116.98 160.95 C 119.45 160.99 120.13 162.68 121.51 164.36 C 119.07 163.86 116.69 163.22 114.21 163.02 C 116.13 165.29 118.72 165.47 121.08 167.11 C 122.17 171.15 118.22 171.95 115.17 171.54 C 112.68 171.33 112.50 169.52 111.43 167.67 C 114.57 168.14 116.22 171.03 119.14 168.60 C 117.09 167.53 113.18 167.11 112.14 164.87 C 111.50 162.05 114.66 160.75 116.98 160.95 Z" fill="#181412" />
<path d="M 126.19 161.24 C 128.26 160.60 130.82 161.05 132.39 162.61 C 134.63 165.03 134.09 169.66 130.94 171.08 C 128.54 172.09 125.09 171.84 123.49 169.55 C 121.53 166.62 122.59 162.23 126.19 161.24 Z" fill="#181412" />
<path d="M 145.90 164.74 C 143.83 164.76 139.66 161.79 138.32 164.36 C 137.53 167.19 137.76 168.59 140.60 169.77 C 142.29 168.71 143.80 167.98 145.76 167.54 C 144.44 170.23 143.29 171.89 139.97 171.62 C 135.26 171.50 133.39 165.76 136.53 162.54 C 139.91 159.75 144.07 160.70 145.90 164.74 Z" fill="#181412" />
<path d="M 147.23 161.52 C 148.12 161.33 149.02 161.16 149.92 161.01 C 150.04 164.47 150.03 167.92 149.96 171.38 C 149.02 171.37 148.07 171.35 147.12 171.33 C 147.12 168.07 146.95 164.77 147.23 161.52 Z" fill="#181412" />
<path d="M 155.36 161.37 C 156.32 161.28 157.28 161.23 158.24 161.23 C 159.68 164.67 160.99 168.17 162.24 171.68 C 160.06 171.29 159.26 170.95 157.81 169.30 C 155.51 169.86 153.39 170.84 151.21 171.73 C 152.44 168.25 153.60 164.63 155.36 161.37 Z" fill="#181412" />
<path d="M 161.88 161.25 C 164.94 161.25 168.01 161.25 171.07 161.26 L 171.06 163.30 C 170.03 163.31 168.99 163.31 167.96 163.32 C 167.94 165.99 167.94 168.67 167.93 171.34 C 166.95 171.34 165.97 171.34 164.98 171.34 C 164.98 168.66 164.98 165.98 164.99 163.30 C 163.95 163.31 162.91 163.31 161.87 163.31 L 161.88 161.25 Z" fill="#181412" />
<path d="M 180.35 161.39 C 182.91 160.44 186.03 161.04 187.57 163.42 C 188.96 165.86 188.43 169.43 185.87 170.91 C 183.69 171.99 180.56 171.93 178.68 170.27 C 176.03 167.66 176.70 162.71 180.35 161.39 Z" fill="#181412" />
<path d="M 190.09 161.00 C 194.42 160.86 194.80 164.56 196.99 167.43 C 196.97 165.38 196.95 163.32 196.94 161.27 L 199.73 161.28 C 199.76 164.74 199.77 168.19 199.69 171.65 C 195.42 171.74 194.78 167.92 192.68 165.04 C 192.76 167.14 192.82 169.25 192.86 171.35 L 189.98 171.33 C 189.97 167.88 189.97 164.44 190.09 161.00 Z" fill="#181412" />
<path d="M 76.40 161.27 L 79.19 161.25 C 79.19 163.89 79.19 166.53 79.20 169.18 C 81.02 169.20 82.84 169.23 84.66 169.25 L 84.58 171.36 C 81.85 171.36 79.12 171.36 76.39 171.36 C 76.38 168.00 76.38 164.63 76.40 161.27 Z" fill="#181412" />
<path d="M 172.50 161.26 L 175.27 161.25 C 175.27 164.62 175.27 167.99 175.27 171.36 L 172.49 171.35 C 172.49 167.99 172.49 164.63 172.50 161.26 Z" fill="#181412" />
<path d="M 13.44 163.48 C 14.36 162.99 15.39 163.01 16.53 163.54 C 18.36 165.39 18.01 169.19 15.01 169.63 C 11.84 169.59 11.31 165.10 13.44 163.48 Z" fill="#ffffff" />
<path d="M 26.32 163.25 C 30.24 162.20 31.08 166.98 28.96 169.20 C 27.62 169.73 26.39 169.58 25.28 168.73 C 24.49 166.98 24.37 164.29 26.32 163.25 Z" fill="#ffffff" />
<path d="M 47.20 163.24 C 49.31 163.26 49.96 163.13 51.34 164.85 C 49.92 165.04 48.49 165.19 47.05 165.28 C 47.08 164.60 47.13 163.92 47.20 163.24 Z" fill="#ffffff" />
<path d="M 126.48 163.47 C 127.60 163.05 128.64 163.04 129.59 163.43 C 131.72 165.14 131.23 169.50 128.01 169.63 C 124.92 169.13 124.82 165.50 126.48 163.47 Z" fill="#ffffff" />
<path d="M 181.40 163.31 C 184.22 162.52 185.64 164.27 185.35 167.00 C 185.07 169.47 183.08 169.94 180.99 169.18 C 179.72 167.53 179.51 164.60 181.40 163.31 Z" fill="#ffffff" />
<path d="M 94.74 164.13 C 95.59 165.05 96.16 166.07 96.44 167.19 C 95.46 167.88 94.46 167.91 93.45 167.29 C 93.48 166.03 93.91 164.97 94.74 164.13 Z" fill="#ffffff" />
<path d="M 156.62 164.17 C 157.08 165.23 157.51 166.31 157.94 167.38 C 157.11 167.39 156.28 167.40 155.45 167.41 C 155.84 166.33 156.22 165.24 156.62 164.17 Z" fill="#ffffff" />
<path d="M 60.05 164.49 C 60.78 165.05 61.23 165.86 61.40 166.93 C 60.47 168.03 59.54 168.03 58.62 166.93 C 58.83 165.87 59.31 165.06 60.05 164.49 Z" fill="#ffffff" />
<path d="M 47.00 166.98 C 49.15 167.32 50.42 166.76 51.56 168.99 C 50.09 169.17 48.63 169.33 47.16 169.48 C 47.11 168.64 47.05 167.81 47.00 166.98 Z" fill="#ffffff" />
</svg>